<mxfile host="65bd71144e">
    <diagram id="B3IAseJyLaitihcl29F7" name="Page-1">
        <mxGraphModel dx="1110" dy="602" grid="1" gridSize="10" guides="1" tooltips="1" connect="1" arrows="1" fold="1" page="1" pageScale="1" pageWidth="850" pageHeight="1100" math="0" shadow="0">
            <root>
                <mxCell id="0"/>
                <mxCell id="1" parent="0"/>
                <mxCell id="2" value="&lt;p style=&quot;margin: 0px ; margin-top: 4px ; text-align: center&quot;&gt;&lt;b&gt;Class levenshtein&lt;/b&gt;&lt;/p&gt;&lt;hr size=&quot;1&quot;&gt;&lt;p style=&quot;margin: 0px ; margin-left: 4px&quot;&gt;+ fString: char*&lt;/p&gt;&lt;p style=&quot;margin: 0px ; margin-left: 4px&quot;&gt;+ sString: char*&lt;/p&gt;&lt;p style=&quot;margin: 0px ; margin-left: 4px&quot;&gt;+ matrix: int**&lt;/p&gt;&lt;p style=&quot;margin: 0px ; margin-left: 4px&quot;&gt;+ n, m: int&lt;/p&gt;&lt;p style=&quot;margin: 0px ; margin-left: 4px&quot;&gt;&lt;br&gt;&lt;/p&gt;&lt;div style=&quot;color: rgb(212 , 212 , 212) ; background-color: rgb(30 , 30 , 30) ; font-family: &amp;#34;droid sans mono&amp;#34; , monospace , monospace , &amp;#34;droid sans fallback&amp;#34; ; font-size: 15px ; line-height: 20px&quot;&gt;&lt;/div&gt;&lt;p style=&quot;margin: 0px ; margin-left: 4px&quot;&gt;- recursive()&lt;span&gt;: int&lt;/span&gt;&lt;/p&gt;&lt;p style=&quot;margin: 0px ; margin-left: 4px&quot;&gt;&lt;span&gt;- recursiveMatrix(): int&lt;/span&gt;&lt;/p&gt;&lt;p style=&quot;margin: 0px ; margin-left: 4px&quot;&gt;&lt;span&gt;- iterationMatrix(): int&lt;/span&gt;&lt;/p&gt;&lt;p style=&quot;margin: 0px ; margin-left: 4px&quot;&gt;&lt;span&gt;- damerayLevenshtein(): int&lt;/span&gt;&lt;/p&gt;" style="verticalAlign=top;align=left;overflow=fill;fontSize=12;fontFamily=Helvetica;html=1;" vertex="1" parent="1">
                    <mxGeometry x="340" y="240" width="160" height="170" as="geometry"/>
                </mxCell>
            </root>
        </mxGraphModel>
    </diagram>
</mxfile>